<svg width="95.2" height="22" viewBox="0 0 96 22" fill="none" xmlns="http://www.w3.org/2000/svg">
<path d="M5.19835 12.6685C3.919 12.6685 3.05237 11.9468 3.05237 9.76013C3.05237 7.57342 4.04939 6.85176 5.17678 6.85176C6.39143 6.85176 7.21591 7.57342 7.21591 9.71663C7.21591 11.9686 6.30516 12.6685 5.19933 12.6685H5.19835ZM36.4636 6.98522C34.2705 6.98522 33.798 9.10965 33.798 11.4723C33.798 13.835 34.2921 16.1552 36.5283 16.1552C38.7644 16.1552 39.1938 14.0308 39.1938 11.6246C39.1938 9.2184 38.7203 6.98522 36.4636 6.98522ZM36.5714 5.94524C39.8605 5.94524 41.43 8.24268 41.43 11.5376C41.43 14.8325 39.5811 17.1952 36.443 17.1952C33.3049 17.1952 31.5638 14.9185 31.5638 11.6236C31.5638 8.32868 33.499 5.94425 36.5724 5.94425L36.5714 5.94524ZM27.1179 13.9873V12.1881H25.9141C23.9583 12.1881 23.3132 13.0115 23.3132 14.2907C23.3132 15.3742 23.7004 16.003 24.8396 16.003C25.915 16.003 27.1189 15.309 27.1189 13.9863L27.1179 13.9873ZM24.8602 3.40857C24.3877 3.21382 24.0004 3.06158 23.5916 3.06158C23.2269 3.06158 22.8828 3.23458 22.5603 4.01555L21.9368 3.82081C22.324 2.49909 22.9466 1.71812 24.1945 1.71812C24.9896 1.71812 25.42 1.95636 26.0425 2.21636C26.4729 2.39034 26.8807 2.5416 27.3111 2.5416C27.8051 2.5416 28.064 2.34685 28.3649 1.60938L28.9669 1.78336C28.5375 3.36606 27.6983 3.9078 26.7738 3.9078C26.0219 3.9078 25.42 3.64781 24.8612 3.40956L24.8602 3.40857ZM27.1179 11.2776V9.80363C27.1179 7.91744 26.666 6.85571 24.968 6.85571C24.323 6.85571 23.1622 6.94271 23.1622 7.76619C23.1622 7.85318 23.1838 7.93919 23.2054 8.04793H23.9151C23.9798 8.30891 24.0445 8.58967 24.0445 8.8289C24.0445 9.56538 23.5289 9.97762 22.8191 9.97762C22.0446 9.97762 21.5721 9.50113 21.5721 8.63415C21.5721 7.05145 23.1632 5.94623 25.2915 5.94623C27.9787 5.94623 29.161 7.00795 29.161 10.0429V14.9857C29.161 15.9179 29.3119 16.1987 29.8276 16.1987C30.0648 16.1987 30.2795 16.1552 30.5374 16.0692L30.7315 16.8067C30.3668 17.0024 29.807 17.1754 29.1619 17.1754C28.0444 17.1754 27.3993 16.7632 27.2267 15.6362C26.5601 16.6337 25.3994 17.1971 24.0671 17.1971C22.4123 17.1971 21.0574 16.4597 21.0574 14.4222C21.0574 12.0595 22.9711 11.2786 25.6366 11.2786H27.1199L27.1179 11.2776ZM17.3605 16.0899V16.9569H11.6V16.0899L12.997 15.9377V7.22445L11.6 7.07221V6.22698L14.695 6.09748L14.845 7.98367H14.9303C15.5538 6.8567 16.4361 5.94623 18.0262 5.94623C19.2085 5.94623 20.2192 6.66195 20.2192 7.96192C20.2192 9.13338 19.6173 9.65337 18.7144 9.65337C17.8115 9.65337 17.3174 9.11064 17.339 8.17842L18.0272 7.89668C18.0487 7.80968 18.0703 7.72269 18.0703 7.63668C18.0703 7.2462 17.7468 7.1167 17.3605 7.1167C16.2214 7.1167 15.0391 8.6124 15.0391 9.86986V15.9397L17.3605 16.0919V16.0899ZM5.56794 17.3484C7.58452 17.3484 8.66878 17.4789 8.66878 18.6602C8.66878 20.06 7.411 20.497 5.2856 20.497C2.55338 20.497 2.05536 19.8623 2.05536 18.8352C2.05536 18.2233 2.29358 17.7636 2.59749 17.3484H5.56892H5.56794ZM10.9785 4.43174C10.9697 3.32949 10.1893 2.77292 9.91382 2.61969C9.67069 2.48426 8.95406 2.23316 8.1737 2.9825C7.51785 3.61123 7.78451 4.39912 8.08939 4.80246C8.28056 4.76192 8.82269 4.64725 8.82269 4.64725C8.82269 4.64725 8.98249 4.86968 8.87857 5.1445C8.73936 5.51423 7.89529 6.23984 7.59334 6.46424C7.57569 6.47709 7.55805 6.48896 7.53942 6.5028C6.99827 6.13109 6.19536 5.89087 5.21992 5.89087C2.35731 5.89087 0.948548 7.83638 0.948548 10.0013C0.948548 11.5099 1.6642 12.8 3.02982 13.2814C1.96811 14.1998 1.1005 14.8127 1.1005 15.7963C1.1005 16.2985 1.33873 16.7572 1.85929 16.9984C1.12207 17.4354 0.363281 18.0266 0.363281 19.2504C0.363281 20.672 1.46911 21.6121 4.76504 21.6121C8.88446 21.6121 10.2511 20.3438 10.2511 18.157C10.2511 15.6866 8.38644 15.3149 5.89244 15.3149H3.8543C3.24648 15.3149 2.96512 15.2714 2.96512 14.8562C2.96512 14.5498 3.2906 14.1998 3.98468 13.5661C4.418 13.6531 4.67877 13.6966 5.2209 13.6966C7.4757 13.6966 9.27561 12.2543 9.27561 9.76112C9.27561 8.49279 8.77662 7.70588 8.16978 7.09396C8.64525 6.96545 9.07955 6.90613 9.83049 6.49983C10.4363 6.17261 10.9873 5.46776 10.9785 4.43174Z" fill="#605444"/>
<path d="M8.4079 5.74783C8.4079 5.74783 7.20502 3.9941 7.67559 2.72676C8.20791 1.29432 9.63824 0.378906 9.63824 0.378906C9.63824 0.378906 10.4186 2.33034 10.1225 3.44644C9.76863 4.78002 8.4079 5.74783 8.4079 5.74783Z" fill="#8CC63F"/>
<path d="M51.6662 9.85484V13.9505C51.1368 14.7404 50.0633 15.29 49.0506 15.29C47.3468 15.29 46.2017 13.9287 46.2017 11.9032C46.2017 9.87758 47.3478 8.49358 49.0506 8.49358C50.0388 8.49358 51.1368 9.06596 51.6652 9.85484H51.6662ZM93.1388 11.8814C93.1388 13.5234 92.2202 15.29 90.2056 15.29C88.191 15.29 87.294 13.5234 87.294 11.8814C87.294 9.55333 88.8027 8.49358 90.2056 8.49358C92.2212 8.49358 93.1388 10.2503 93.1388 11.8814ZM94.1348 8.0161C93.1535 6.95438 91.7947 6.39386 90.2056 6.39386C87.1136 6.39386 84.8696 8.70217 84.8696 11.8824C84.8696 15.0626 87.1136 17.3917 90.2056 17.3917C91.7957 17.3917 93.1545 16.8292 94.1348 15.7665C95.0554 14.768 95.5632 13.388 95.5632 11.8824C95.5632 10.3768 95.0563 9.01258 94.1348 8.01709V8.0161ZM83.7471 14.943C83.5941 15.116 83.2 15.291 82.7697 15.291C82.1961 15.291 81.8256 14.8412 81.8256 14.1176V8.68339H83.9422V6.72701H81.8256V3.8819H79.5326V6.72701H77.7689V8.68339H79.5326V14.6761C79.5326 16.4278 80.4796 17.3927 82.2167 17.3927C83.1677 17.3927 83.8853 17.1633 84.3568 16.7126L84.3774 16.6908L83.8069 14.8768L83.7471 14.944V14.943ZM75.3092 10.9947H69.6203C69.7546 9.75005 70.6781 8.3453 72.4633 8.3453C73.7769 8.3453 75.219 9.21623 75.3092 10.9947ZM72.4633 6.39386C69.4575 6.39386 67.1919 8.75358 67.1919 11.8824C67.1919 15.0112 69.4301 17.3917 72.6338 17.3917C74.3367 17.3917 75.8327 16.8519 76.8464 15.8733L76.8778 15.8436L75.7955 14.2747L75.7523 14.3182C75.0857 14.9905 73.9269 15.4857 72.8681 15.4857C71.4251 15.4857 69.8771 14.5515 69.6428 12.7731H77.5924V12.0969C77.5924 10.4846 77.0964 9.03334 76.1994 8.01215C75.27 6.95339 73.9759 6.39386 72.4633 6.39386ZM63.6597 8.08431V6.72701H61.1903V17.2197H63.6597V10.0278C64.0127 9.32497 65.3136 8.68833 66.2351 8.68833C66.5067 8.68833 66.7498 8.70909 66.939 8.7516L67.0106 8.76544V6.37112H66.9223C65.7106 6.37112 64.5411 7.03742 63.6597 8.08431ZM57.6404 2.58984C56.862 2.58984 56.2042 3.25317 56.2042 4.0381C56.2042 4.82302 56.862 5.48536 57.6404 5.48536C58.4188 5.48536 59.0756 4.83587 59.0756 4.0381C59.0756 3.24032 58.4316 2.58984 57.6404 2.58984ZM56.4287 17.2197H58.7217V6.72503H56.4287V17.2177V17.2197ZM51.6672 7.99633C50.7849 6.97613 49.6633 6.39485 48.4124 6.39485C45.642 6.39485 43.7793 8.60924 43.7793 11.9041C43.7793 15.199 45.642 17.3927 48.4134 17.3927C49.6673 17.3927 50.7858 16.8183 51.6681 15.811V17.2197H53.9612V2.63433H51.6681V7.99435L51.6672 7.99633Z" fill="#8CC63F"/>
</svg>
